# xmcd
#
# Track frame offsets: 
#        150
#        17506
#        34156
#        52565
#        64135
#        79789
#        96362
#        110004
#        125020
#        140546
#        155299
#        169545
#        188556
#        205486
#        226006
#        239053
#        254169
#        272403
#        288923
#        303111
#        318355
#
# Disc length: 4488 seconds
#
# Revision: 0
# Processed by: cddbd v1.5.2PL0 Copyright (c) Steve Scherf et al.
# Submitted via: ExactAudioCopyFreeDBPlugin 1.0
#
DISCID=1d118615
DTITLE=Various Artist - Beaut Ute Anthems 2017
DYEAR=2017
DGENRE=Country
TTITLE0=Sunny Cowgirls - Rev It Up
TTITLE1=Lee Kernaghan - She's My Ute
TTITLE2=Brad Paisley - Working On A Tan
TTITLE3=The Cockroaches - She's The One
TTITLE4=Dean Brody - Bring Down The House
TTITLE5=Kenny Chesney - Rock Bottom
TTITLE6=The Wolfe Brothers - That Kinda Night
TTITLE7=Troy Cassar-Daley - V8 Town
TTITLE8=Amber Lawrence - Pretty Little Liar
TTITLE9=Steve Forde - Rodeo Freak
TTITLE10=Casey Barnes - The Way We Ride
TTITLE11=Nickelback - Gotta Be Somebody
TTITLE12=Shannon Noll - Collide
TTITLE13=Ian Moss - Tucker's Daughter
TTITLE14=Miranda Lambert - Mama's Broken Heart
TTITLE15=Catherine Britt - Always Never Enough
TTITLE16=Adam Eckersley Band - Wheels
TTITLE17=Blake Shelton - Came Here to Forget
TTITLE18=Adam Brand - My Side of The Street
TTITLE19=O'Shea - Looking Down On The Stars
TTITLE20=Mickey Pye - If I Could Make A Wish
EXTD=
EXTT0=
EXTT1=
EXTT2=
EXTT3=
EXTT4=
EXTT5=
EXTT6=
EXTT7=
EXTT8=
EXTT9=
EXTT10=
EXTT11=
EXTT12=
EXTT13=
EXTT14=
EXTT15=
EXTT16=
EXTT17=
EXTT18=
EXTT19=
EXTT20=
PLAYORDER=
